<?xml version="1.0" encoding="UTF-8"?>
<svg width="24px" height="27px" viewBox="0 0 24 27" version="1.1" xmlns="http://www.w3.org/2000/svg" xmlns:xlink="http://www.w3.org/1999/xlink">
    <!-- Generator: Sketch 52.2 (67145) - http://www.bohemiancoding.com/sketch -->
    <title>Close</title>
    <desc>Created with Sketch.</desc>
    <g id="Symbols" stroke="none" stroke-width="1" fill="none" fill-rule="evenodd">
        <g id="Card-Desktop" transform="translate(-266.000000, 0.000000)">
            <g id="Card">
                <g id="Close" transform="translate(266.000000, 0.000000)">
                    <rect id="Rectangle" fill="#D8D8D8" opacity="0.00746372768" x="0" y="0" width="24" height="27"></rect>
                    <path d="M12.9620006,13.9997918 L16.8008361,10.1609563 C17.066388,9.89540443 17.066388,9.46429932 16.8008361,9.19874745 C16.5352842,8.93319559 16.1041791,8.93430669 15.8386273,9.19874745 L11.9997918,13.0375829 L8.16095629,9.19874745 C7.89651552,8.93430669 7.46429932,8.93319559 7.19874745,9.19874745 C6.93319559,9.46429932 6.93430669,9.89540443 7.19874745,10.1609563 L11.0375829,13.9997918 L7.19874745,17.8386273 C6.93430669,18.1041791 6.93319559,18.5352842 7.19874745,18.8008361 C7.46429932,19.066388 7.89651552,19.066388 8.16095629,18.8008361 L11.9997918,14.9620006 L15.8386273,18.8008361 C16.1041791,19.066388 16.5352842,19.066388 16.8008361,18.8008361 C17.066388,18.5352842 17.066388,18.1041791 16.8008361,17.8386273 L12.9620006,13.9997918 Z" id="Unfollow-Cross-Copy" fill="#222222"></path>
                </g>
            </g>
        </g>
    </g>
</svg>